<svg xmlns="http://www.w3.org/2000/svg" width="90.683" height="61.857" viewBox="0 0 90.683 61.857">
  <g id="Wraps" transform="translate(-875.136 -379.723)">
    <g id="Group_30" data-name="Group 30">
      <ellipse id="Ellipse_22" data-name="Ellipse 22" cx="3.368" cy="2.854" rx="3.368" ry="2.854" transform="translate(891.727 421.367)" fill="#fff"/>
    </g>
    <g id="Group_31" data-name="Group 31">
      <ellipse id="Ellipse_23" data-name="Ellipse 23" cx="3.368" cy="2.854" rx="3.368" ry="2.854" transform="translate(896.444 426.58)" fill="#fff"/>
    </g>
    <g id="Group_151" data-name="Group 151">
      <g id="Group_32" data-name="Group 32">
        <path id="Path_706" data-name="Path 706" d="M920.137,411.09v0c-.8-.412-1.6-.825-2.4-1.231q-.816-.414-1.63-.833c2.033.233,3.479.979,4.032,2.064.4.207.8.415,1.207.62.337.172.676.339,1.015.508a4.5,4.5,0,0,0-.311-1.673c-1.116-2.779-4.915-3.973-9.586-3.385l1.632.836C914.606,408.257,918.184,410.09,920.137,411.09Z" fill="none"/>
      </g>
      <g id="Group_33" data-name="Group 33">
        <path id="Path_707" data-name="Path 707" d="M899.023,418.015a6.653,6.653,0,0,0,7.393-.07,7.746,7.746,0,0,0,.7.744,21.647,21.647,0,0,1,7.586-2.01h.105c.137,0,.3-.014.451-.025a25.4,25.4,0,0,0-3.039-6.552c1.079.552,2.162,1.1,3.244,1.642-2.32-1.43-4.7-2.775-5.889-2.231-.039.018-2.307,1.028-2.346,1.044-.232.394-.474.8-.729,1.227-.254-.185-.5-.374-.747-.562a21.436,21.436,0,0,0-2.59,1.482c.673.472,1.342.938,2.02,1.387.393.261.421.509.223.829a2.658,2.658,0,0,1-2.1,1.41,9.99,9.99,0,0,1-1.2.009,2.835,2.835,0,0,1-2-.992,7.413,7.413,0,0,0-1.551,2.618A.642.642,0,0,1,899.023,418.015Zm9.27-3.441c.4-.991.895-1.943,1.408-3.041a19.884,19.884,0,0,1,2.721,5.117c-.536.226-1,.449-1.488.622a2.276,2.276,0,0,1-2.641-2.7Z" fill="none"/>
      </g>
      <g id="Group_34" data-name="Group 34">
        <path id="Path_708" data-name="Path 708" d="M896.833,420.864a2.429,2.429,0,0,0-.18.273c-.57,1.025-1,1.156-1.945.465a11.114,11.114,0,0,1-1.482-1.39,1.431,1.431,0,0,0-1.506-.49,1.384,1.384,0,0,0-.966,1.114,2.615,2.615,0,0,1-.265.673,22.25,22.25,0,0,0,7.839,2.018,13.676,13.676,0,0,0,1.373-.076A5.213,5.213,0,0,1,896.833,420.864Z"/>
      </g>
      <g id="Group_35" data-name="Group 35">
        <path id="Path_709" data-name="Path 709" d="M921.823,414.714a23.24,23.24,0,0,1,3.139-1.247l-.05-.021c-.86-.392-1.709-.808-2.554-1.231a6.048,6.048,0,0,1-.621,2.539Z"/>
      </g>
      <g id="Group_36" data-name="Group 36">
        <path id="Path_710" data-name="Path 710" d="M964.227,390.478a33.233,33.233,0,0,1-1.429-3.794,7.325,7.325,0,0,0-2.887-4.152,14.551,14.551,0,0,0-6.97-2.678,23.235,23.235,0,0,0-10.717,1.485c-4.347,1.587-8.633,3.344-12.914,5.1q-8.97,3.686-17.893,7.484-10.911,4.635-21.783,9.361a15.628,15.628,0,0,0-7.681,6.433,19.554,19.554,0,0,0-2.407,7.41,20.021,20.021,0,0,0,1.529,11.3,15.009,15.009,0,0,0,8.5,7.931,26.371,26.371,0,0,0,9.414,1.367c-8.816,0-16.279-7.786-17.974-12.692-1.847-5.35-1.02-6.81,1.2-6.582-.006-.19.022-.391.027-.583,2.52.542,4.986,1.205,7-1.027a18.739,18.739,0,0,0,2.2,1.346,9.123,9.123,0,0,0,5.024.4,8.141,8.141,0,0,1,2.191-4.538c.2-.233.422-.461.646-.688-.29-1.292-.02-1.455,1.612-2.253.193.135.378.267.568.4a22.582,22.582,0,0,1,2.478-1.559l-.041-.026a1.959,1.959,0,0,1-1-1.978c.018-.671,0-1.344,0-2.116,1.46.5,2.872.739,3.785,1.981a6.6,6.6,0,0,0,.567.642,23.426,23.426,0,0,1,5.192-1.3c-1.653-.846-3.31-1.685-4.981-2.494a32.906,32.906,0,0,0-8.346-2.526c1.634-.706,3.094-1.344,4.559-1.968,4.9-2.09,9.788-4.217,14.713-6.252,7.95-3.286,15.908-6.552,23.9-9.739a22.093,22.093,0,0,1,9.611-1.681,12.327,12.327,0,0,1,5.977,1.931,5.768,5.768,0,0,1,2.645,4.543,18.452,18.452,0,0,1-1.686,9.153,30.5,30.5,0,0,1-8.322,11.493,27.176,27.176,0,0,1-6.135,3.6q-2.375,1.139-4.809,2.146c-.183.943-1.383,1.88-3.693,2.9a10.806,10.806,0,0,0-2.215,1.236,1.325,1.325,0,0,1,.459,1.1c-.027.367-.1,1.342-3.126,2.806a23.7,23.7,0,0,1-5.657,1.869,19.107,19.107,0,0,0-6.823,2.676,21.68,21.68,0,0,1-8.2,3.148c-2.683,3.6-6.566,6.632-11.339,6.632a17.5,17.5,0,0,0,7.129-1.241c1.671-.7,3.26-1.6,4.872-2.438q7.68-3.988,15.348-8,10.533-5.511,21.059-11.035c4.156-2.176,8.349-4.282,12.468-6.524a10.771,10.771,0,0,0,5.953-10.08A21.419,21.419,0,0,0,964.227,390.478Zm-77.489,25.009a.459.459,0,0,1-.268.115,5.72,5.72,0,0,1-3.8-.683l1.647-4.006,3.825,2.386A4.7,4.7,0,0,1,886.738,415.487Zm1.75-5.148c-.787-.459-1.538-.98-2.4-1.544a16.918,16.918,0,0,1,5.415-3.349c.146,1.328.287,2.621.444,4.054-.779.318-1.648.712-2.549,1.013A1.267,1.267,0,0,1,888.488,410.339Zm2.386,4.191a.653.653,0,0,1-.118-.447,1.675,1.675,0,0,1,1.381-1.717.619.619,0,0,0,.27-.124c1.083-.93,2.287-.714,3.514-.4a.557.557,0,0,1,.507.532c.166,1.079.386,2.15.594,3.269C894.921,416.287,892.489,416.317,890.874,414.53Zm9.18-9.428a.536.536,0,0,1,.261.422c-.008.816-.053,1.633-.093,2.449a.624.624,0,0,1-.1.329,3.425,3.425,0,0,1-3.049,1.049,10.766,10.766,0,0,0-1.52-.314,1.079,1.079,0,0,1-1.059-.959c-.1-.686-.122-1.387-.158-2.082-.021-.395,0-.792,0-1.247A14.976,14.976,0,0,1,900.054,405.1Zm56.647,1.884a31.624,31.624,0,0,0,6.019-11.8C963.941,401.143,962.091,404.856,956.7,406.986Z"/>
      </g>
      <g id="Group_37" data-name="Group 37">
        <path id="Path_711" data-name="Path 711" d="M922.047,410.542a4.5,4.5,0,0,1,.311,1.673c.845.423,1.694.839,2.554,1.231l.05.021a22.885,22.885,0,0,1,2.5-.662c3.295-.65,3.943.085,4.185.362a1.324,1.324,0,0,1,.295,1.152,10.678,10.678,0,0,0,2.512-.344c3.067-.718,4.682-.5,5.079.688a1.361,1.361,0,0,1,.048.7q2.433-1,4.809-2.146a27.176,27.176,0,0,0,6.135-3.6,30.5,30.5,0,0,0,8.322-11.493,18.452,18.452,0,0,0,1.686-9.153,5.768,5.768,0,0,0-2.645-4.543,12.327,12.327,0,0,0-5.977-1.931,22.093,22.093,0,0,0-9.611,1.681c-7.99,3.187-15.948,6.453-23.9,9.739-4.925,2.035-9.811,4.162-14.713,6.252-1.465.624-2.925,1.262-4.559,1.968a32.906,32.906,0,0,1,8.346,2.526c1.671.809,3.328,1.648,4.981,2.494C917.132,406.569,920.931,407.763,922.047,410.542Z" fill="#fff"/>
      </g>
      <g id="Group_38" data-name="Group 38">
        <path id="Path_712" data-name="Path 712" d="M887.336,420.174c1.007.43,2.069.893,3.153,1.335a2.615,2.615,0,0,0,.265-.673,1.384,1.384,0,0,1,.966-1.114,1.431,1.431,0,0,1,1.506.49,11.114,11.114,0,0,0,1.482,1.39c.948.691,1.375.56,1.945-.465a2.429,2.429,0,0,1,.18-.273c-.027-.059-.057-.115-.082-.175a4.563,4.563,0,0,1-.288-2.1,9.123,9.123,0,0,1-5.024-.4,18.739,18.739,0,0,1-2.2-1.346c-2.017,2.232-4.483,1.569-7,1.027-.005.192-.033.393-.027.583a19.262,19.262,0,0,1,4.8,1.583A1.259,1.259,0,0,1,887.336,420.174Z" fill="#fff"/>
      </g>
      <g id="Group_39" data-name="Group 39">
        <path id="Path_713" data-name="Path 713" d="M894.336,404.749c0,.455-.017.852,0,1.247.036.7.053,1.4.158,2.082a1.079,1.079,0,0,0,1.059.959,10.766,10.766,0,0,1,1.52.314,3.425,3.425,0,0,0,3.049-1.049.624.624,0,0,0,.1-.329c.04-.816.085-1.633.093-2.449a.536.536,0,0,0-.261-.422A14.976,14.976,0,0,0,894.336,404.749Z" fill="#fff"/>
      </g>
      <g id="Group_40" data-name="Group 40">
        <path id="Path_714" data-name="Path 714" d="M895.921,411.843c-1.227-.315-2.431-.531-3.514.4a.619.619,0,0,1-.27.124,1.675,1.675,0,0,0-1.381,1.717.653.653,0,0,0,.118.447c1.615,1.787,4.047,1.757,6.148,1.114-.208-1.119-.428-2.19-.594-3.269A.557.557,0,0,0,895.921,411.843Z" fill="#fff"/>
      </g>
      <g id="Group_41" data-name="Group 41">
        <path id="Path_715" data-name="Path 715" d="M900.912,411.113c-1.632.8-1.9.961-1.612,2.253a18.011,18.011,0,0,1,2.18-1.852C901.29,411.38,901.1,411.248,900.912,411.113Z" fill="#fff"/>
      </g>
      <g id="Group_42" data-name="Group 42">
        <path id="Path_716" data-name="Path 716" d="M956.7,406.986c5.39-2.13,7.24-5.843,6.019-11.8A31.624,31.624,0,0,1,956.7,406.986Z" fill="#fff"/>
      </g>
      <g id="Group_43" data-name="Group 43">
        <path id="Path_717" data-name="Path 717" d="M891.5,405.446a16.918,16.918,0,0,0-5.415,3.349c.867.564,1.618,1.085,2.4,1.544a1.267,1.267,0,0,0,.905.174c.9-.3,1.77-.7,2.549-1.013C891.785,408.067,891.644,406.774,891.5,405.446Z" fill="#fff"/>
      </g>
      <g id="Group_44" data-name="Group 44">
        <path id="Path_718" data-name="Path 718" d="M907.269,408.458a6.6,6.6,0,0,1-.567-.642c-.913-1.242-2.325-1.479-3.785-1.981,0,.772.014,1.445,0,2.116a1.959,1.959,0,0,0,1,1.978l.041.026a25.313,25.313,0,0,1,2.666-1.258C906.84,408.61,907.054,408.538,907.269,408.458Z" fill="#fff"/>
      </g>
      <g id="Group_45" data-name="Group 45">
        <path id="Path_719" data-name="Path 719" d="M882.667,414.919a5.72,5.72,0,0,0,3.8.683.459.459,0,0,0,.268-.115,4.7,4.7,0,0,0,1.4-2.188l-3.825-2.386Z" fill="#fff"/>
      </g>
      <g id="Group_46" data-name="Group 46">
        <path id="Path_720" data-name="Path 720" d="M899.008,423.735c.268-.084.514-.171.761-.258-.022-.009-.046-.016-.068-.026a13.676,13.676,0,0,1-1.373.076c.175.083.346.172.516.261Z"/>
      </g>
      <g id="Group_47" data-name="Group 47">
        <path id="Path_721" data-name="Path 721" d="M910.329,431.1a9.442,9.442,0,0,1-1.663.122,6.252,6.252,0,0,1-1.021.279,1.925,1.925,0,0,0-1.056.649.576.576,0,0,1-.617.291c-.553-.088-1.1-.183-1.657-.267a1.448,1.448,0,0,0-1.881,1.187c-.161.59-.326,1.168-1.088,1.065a2.333,2.333,0,0,1-1-.441c-.368-.267-.654-.643-1-.941a1.441,1.441,0,0,0-.762-.367c-.254.053-.512.1-.768.141-.059.026-.119.053-.18.086a9.757,9.757,0,0,1-1.176.586,1.431,1.431,0,0,1-1.862-.5c-.026-.03-.053-.059-.079-.09-1.166-1.422-1.989-1.388-3.163.222-.392-.369-.8-.706-1.152-1.1-.754-.837-1.243-.938-2.168-.344-.334.214-.479.115-.516-.236-.026-.238-.018-.479-.031-.719a1.33,1.33,0,0,0-1.01-1.386c-.471-.12-.531-.393-.42-.809.355-1.321.116-1.688-1.2-2.158-1.666-.6-2.31-1.978-2.6-3.591-.041-.232-.036-.472-.063-.855a7.091,7.091,0,0,0,3.628.833c.185-.005.4.221.558.38,1.186,1.173,2.547,1.937,4.252,1.466a10.041,10.041,0,0,0,2.012-1.1c1.885,1.146,2.861,1.519,3.937,1.125l.288-.123a7.83,7.83,0,0,0,1.456-.984,22.25,22.25,0,0,1-7.839-2.018c-.406.707-1.063.718-1.882-.019a7.834,7.834,0,0,1-.832-.939,1.594,1.594,0,0,0-.439-.377,1.259,1.259,0,0,0-.319-.135,1.321,1.321,0,0,0-.613-.027,5.512,5.512,0,0,1-3.819-.907.691.691,0,0,1-.371-.649c-2.218-.228-3.045,1.232-1.2,6.582,1.7,4.906,9.158,12.692,17.974,12.692C903.763,437.73,907.646,434.7,910.329,431.1Z"/>
      </g>
      <g id="Group_48" data-name="Group 48">
        <path id="Path_722" data-name="Path 722" d="M894.087,432.017c-.626-1.276.982-2.32,1.521-2.669-.64.047-2.554.179-2.82-1.218-.27-1.414,1.869-2.667,3.8-3.5-1.076.394-2.052.021-3.937-1.125a10.041,10.041,0,0,1-2.012,1.1c-1.705.471-3.066-.293-4.252-1.466-.16-.159-.373-.385-.558-.38a7.091,7.091,0,0,1-3.628-.833c.027.383.022.623.063.855.288,1.613.932,2.993,2.6,3.591,1.311.47,1.55.837,1.2,2.158-.111.416-.051.689.42.809a1.33,1.33,0,0,1,1.01,1.386c.013.24.005.481.031.719.037.351.182.45.516.236.925-.594,1.414-.493,2.168.344.351.389.76.726,1.152,1.1,1.174-1.61,2-1.644,3.163-.222.026.031.053.06.079.09a1.431,1.431,0,0,0,1.862.5,9.757,9.757,0,0,0,1.176-.586c.061-.033.121-.06.18-.086a9.961,9.961,0,0,1-1.491.131C895.283,432.947,894.425,432.7,894.087,432.017Z"/>
      </g>
      <g id="Group_49" data-name="Group 49">
        <path id="Path_723" data-name="Path 723" d="M898.328,423.527a7.83,7.83,0,0,1-1.456.984c.778-.322,1.49-.567,1.972-.723C898.674,423.7,898.5,423.61,898.328,423.527Z"/>
      </g>
      <g id="Group_50" data-name="Group 50">
        <path id="Path_724" data-name="Path 724" d="M907.084,430.8c-.43-.163-2.466-.043-5.384.989a25.139,25.139,0,0,1-3.122.888,1.441,1.441,0,0,1,.762.367c.349.3.635.674,1,.941a2.333,2.333,0,0,0,1,.441c.762.1.927-.475,1.088-1.065a1.448,1.448,0,0,1,1.881-1.187c.553.084,1.1.179,1.657.267a.576.576,0,0,0,.617-.291,1.925,1.925,0,0,1,1.056-.649,6.252,6.252,0,0,0,1.021-.279A2.844,2.844,0,0,1,907.084,430.8Z"/>
      </g>
      <g id="Group_51" data-name="Group 51">
        <path id="Path_725" data-name="Path 725" d="M882.585,419.105a5.512,5.512,0,0,0,3.819.907,1.321,1.321,0,0,1,.613.027,19.262,19.262,0,0,0-4.8-1.583A.691.691,0,0,0,882.585,419.105Z"/>
      </g>
      <g id="Group_52" data-name="Group 52">
        <path id="Path_726" data-name="Path 726" d="M887.775,420.551a7.834,7.834,0,0,0,.832.939c.819.737,1.476.726,1.882.019-1.084-.442-2.146-.9-3.153-1.335A1.594,1.594,0,0,1,887.775,420.551Z"/>
      </g>
      <g id="Group_53" data-name="Group 53">
        <path id="Path_727" data-name="Path 727" d="M903.906,421.288a2.169,2.169,0,0,1,.522-.84c-.619-.337-1.176-.158-1.793.548a1.711,1.711,0,0,1-2.564.329c-.371-.248-.738-.5-1.12-.735a5.561,5.561,0,0,0,3.7,1.616A4.326,4.326,0,0,0,903.906,421.288Z" fill="#fff"/>
      </g>
      <g id="Group_54" data-name="Group 54">
        <path id="Path_728" data-name="Path 728" d="M916.1,409.023q.814.417,1.63.833c.8.406,1.6.819,2.4,1.231C919.583,410,918.137,409.256,916.1,409.023Z" fill="#fff"/>
      </g>
      <g id="Group_55" data-name="Group 55">
        <path id="Path_729" data-name="Path 729" d="M915.263,416.654a16.052,16.052,0,0,0,3.351-.695c.018-.02.04-.041.058-.062a8.755,8.755,0,0,0,1.144-1.64,38.6,38.6,0,0,1-4.348-2.513c-1.082-.547-2.165-1.09-3.244-1.642A25.4,25.4,0,0,1,915.263,416.654Z" fill="#fff"/>
      </g>
      <g id="Group_56" data-name="Group 56">
        <path id="Path_730" data-name="Path 730" d="M902.635,421c.617-.706,1.174-.885,1.793-.548a9.05,9.05,0,0,1,2.693-1.759,7.746,7.746,0,0,1-.7-.744,6.653,6.653,0,0,1-7.393.07.642.642,0,0,0-.459-.05,2.986,2.986,0,0,0,0,2,2.434,2.434,0,0,0,.389.628c.382.231.749.487,1.12.735A1.711,1.711,0,0,0,902.635,421Z" fill="#fff"/>
      </g>
      <g id="Group_57" data-name="Group 57">
        <path id="Path_731" data-name="Path 731" d="M903.31,416.33a2.658,2.658,0,0,0,2.1-1.41c.2-.32.17-.568-.223-.829-.678-.449-1.347-.915-2.02-1.387a15.567,15.567,0,0,0-3.041,2.63l-.011.013a2.835,2.835,0,0,0,2,.992A9.99,9.99,0,0,0,903.31,416.33Z" fill="#fff"/>
      </g>
      <g id="Group_58" data-name="Group 58">
        <path id="Path_732" data-name="Path 732" d="M907.233,410.557c-.507.207-1,.431-1.476.665.246.188.493.377.747.562C906.759,411.353,907,410.951,907.233,410.557Z" fill="#fff"/>
      </g>
      <g id="Group_59" data-name="Group 59">
        <path id="Path_733" data-name="Path 733" d="M910.934,417.272c.484-.173.952-.4,1.488-.622a19.884,19.884,0,0,0-2.721-5.117c-.513,1.1-1.007,2.05-1.408,3.041a2.276,2.276,0,0,0,2.641,2.7Z" fill="#fff"/>
      </g>
      <g id="Group_60" data-name="Group 60">
        <path id="Path_734" data-name="Path 734" d="M904.881,410.568c-.3-.217-.606-.426-.923-.613a22.582,22.582,0,0,0-2.478,1.559l.844.6A22.041,22.041,0,0,1,904.881,410.568Z" fill="#1a1718"/>
      </g>
      <g id="Group_61" data-name="Group 61">
        <path id="Path_735" data-name="Path 735" d="M907.859,409.278a21.312,21.312,0,0,1,6.234-1.285l-1.632-.836a23.426,23.426,0,0,0-5.192,1.3c.16.166.321.333.465.512A.7.7,0,0,1,907.859,409.278Z" fill="#1a1718"/>
      </g>
      <g id="Group_62" data-name="Group 62">
        <path id="Path_736" data-name="Path 736" d="M921.036,413.918c-.038.343-.107.589-.251.589q.357.18.716.355c.078-.037.16-.072.236-.108a6.048,6.048,0,0,0,.621-2.539c-.339-.169-.678-.336-1.015-.508A4.5,4.5,0,0,1,921.036,413.918Z" fill="#1a1718"/>
      </g>
      <g id="Group_63" data-name="Group 63">
        <path id="Path_737" data-name="Path 737" d="M899.7,423.451c.08-.008.158-.023.238-.032.454-.164.866-.329,1.245-.493a4.78,4.78,0,0,1-3.528-2.6c0-.012-.005-.024-.01-.035a1.451,1.451,0,0,0-.813.573A5.213,5.213,0,0,0,899.7,423.451Z" fill="#1a1718"/>
      </g>
      <g id="Group_64" data-name="Group 64">
        <path id="Path_738" data-name="Path 738" d="M897.465,418.35a7.906,7.906,0,0,1,2.134-3.879c-.025-.067-.055-.132-.074-.2-.005-.019-.006-.039-.012-.059-.087-.33-.159-.605-.213-.845-.224.227-.443.455-.646.688a8.141,8.141,0,0,0-2.191,4.538l.163-.021A4.421,4.421,0,0,0,897.465,418.35Z" fill="#1a1718"/>
      </g>
      <g id="Group_65" data-name="Group 65">
        <path id="Path_739" data-name="Path 739" d="M921.5,414.862q-.358-.176-.716-.355a8.169,8.169,0,0,1-.517.881C920.694,415.223,921.106,415.046,921.5,414.862Z" fill="#1a1718"/>
      </g>
      <g id="Group_66" data-name="Group 66">
        <path id="Path_740" data-name="Path 740" d="M896.751,420.689c.025.06.055.116.082.175a1.451,1.451,0,0,1,.813-.573,3.689,3.689,0,0,1-.181-1.941,4.421,4.421,0,0,1-.839.221l-.163.021A4.563,4.563,0,0,0,896.751,420.689Z" fill="#1a1718"/>
      </g>
      <g id="Group_67" data-name="Group 67">
        <path id="Path_741" data-name="Path 741" d="M899.525,414.27c.019.069.049.134.074.2a16.6,16.6,0,0,1,2.725-2.361l-.844-.6a18.011,18.011,0,0,0-2.18,1.852c.054.24.126.515.213.845C899.519,414.231,899.52,414.251,899.525,414.27Z" fill="#1a1718"/>
      </g>
      <g id="Group_68" data-name="Group 68">
        <path id="Path_742" data-name="Path 742" d="M906.987,409.6c.291-.117.582-.22.872-.324a.7.7,0,0,0-.125-.308c-.144-.179-.3-.346-.465-.512-.215.08-.429.152-.645.239a25.313,25.313,0,0,0-2.666,1.258c.317.187.622.4.923.613C905.552,410.223,906.252,409.9,906.987,409.6Z" fill="#1a1718"/>
      </g>
      <g id="Group_69" data-name="Group 69">
        <path id="Path_743" data-name="Path 743" d="M899.7,423.451c.022.01.046.017.068.026.055-.02.116-.039.17-.058C899.859,423.428,899.781,423.443,899.7,423.451Z" fill="#1a1718"/>
      </g>
      <g id="Group_70" data-name="Group 70">
        <path id="Path_744" data-name="Path 744" d="M920.136,411.087v0l1.206.617C920.94,411.5,920.538,411.294,920.136,411.087Z" fill="#1a1718"/>
      </g>
      <g id="Group_71" data-name="Group 71">
        <path id="Path_745" data-name="Path 745" d="M921.036,413.918a4.5,4.5,0,0,0,.307-2.211C921.031,411.671,921.127,413.086,921.036,413.918Z" fill="#1a1718"/>
      </g>
      <g id="Group_72" data-name="Group 72">
        <path id="Path_746" data-name="Path 746" d="M905.757,411.222c-.292-.224-.583-.442-.876-.654a22.041,22.041,0,0,0-2.557,1.542l.843.594A21.436,21.436,0,0,1,905.757,411.222Z" fill="#1a1718"/>
      </g>
      <g id="Group_73" data-name="Group 73">
        <path id="Path_747" data-name="Path 747" d="M898.564,417.965a7.413,7.413,0,0,1,1.551-2.618,2.794,2.794,0,0,1-.516-.876,7.906,7.906,0,0,0-2.134,3.879c.363-.127.723-.275,1.091-.384Z" fill="#1a1718"/>
      </g>
      <g id="Group_74" data-name="Group 74">
        <path id="Path_748" data-name="Path 748" d="M901.184,422.926a15.816,15.816,0,0,0,1.467-.72,5.561,5.561,0,0,1-3.7-1.616l-.081-.052a1.64,1.64,0,0,0-1.224-.247c.005.011.006.023.01.035A4.78,4.78,0,0,0,901.184,422.926Z" fill="#1a1718"/>
      </g>
      <g id="Group_75" data-name="Group 75">
        <path id="Path_749" data-name="Path 749" d="M907.847,409.477c-.2.361-.4.717-.614,1.08.039-.016,2.307-1.026,2.346-1.044,1.185-.544,3.569.8,5.889,2.231,1.177.6,2.351,1.2,3.512,1.826.312.168.626.331.94.494a3.453,3.453,0,0,0,.316-2.795c-.025-.063-.068-.119-.1-.179-1.953-1-5.531-2.833-6.044-3.1a21.312,21.312,0,0,0-6.234,1.285A.33.33,0,0,1,907.847,409.477Z" fill="#1a1718"/>
      </g>
      <g id="Group_76" data-name="Group 76">
        <path id="Path_750" data-name="Path 750" d="M919.92,414.064c-.314-.163-.628-.326-.94-.494-1.161-.627-2.335-1.23-3.512-1.826a38.6,38.6,0,0,0,4.348,2.513C919.85,414.193,919.889,414.128,919.92,414.064Z" fill="#1a1718"/>
      </g>
      <g id="Group_77" data-name="Group 77">
        <path id="Path_751" data-name="Path 751" d="M921.036,413.918c-.075.2-.153.391-.251.589C920.929,414.507,921,414.261,921.036,413.918Z" fill="#1a1718"/>
      </g>
      <g id="Group_78" data-name="Group 78">
        <path id="Path_752" data-name="Path 752" d="M919.92,414.064q.432.225.865.443c.1-.2.176-.394.251-.589.091-.832-.005-2.247.307-2.211l-1.206-.617c.031.06.074.116.1.179A3.453,3.453,0,0,1,919.92,414.064Z" fill="#1a1718"/>
      </g>
      <g id="Group_79" data-name="Group 79">
        <path id="Path_753" data-name="Path 753" d="M918.672,415.9c-.018.021-.04.042-.058.062.554-.169,1.11-.359,1.654-.571a8.169,8.169,0,0,0,.517-.881,2.73,2.73,0,0,1-.969-.25A8.755,8.755,0,0,1,918.672,415.9Z" fill="#1a1718"/>
      </g>
      <g id="Group_80" data-name="Group 80">
        <path id="Path_754" data-name="Path 754" d="M920.785,414.507q-.434-.217-.865-.443c-.031.064-.07.129-.1.193A2.73,2.73,0,0,0,920.785,414.507Z" fill="#1a1718"/>
      </g>
      <g id="Group_81" data-name="Group 81">
        <path id="Path_755" data-name="Path 755" d="M898.87,420.538l.081.052a2.434,2.434,0,0,1-.389-.628,2.986,2.986,0,0,1,0-2h-.008c-.368.109-.728.257-1.091.384a3.689,3.689,0,0,0,.181,1.941A1.64,1.64,0,0,1,898.87,420.538Z" fill="#1a1718"/>
      </g>
      <g id="Group_82" data-name="Group 82">
        <path id="Path_756" data-name="Path 756" d="M900.126,415.334a15.567,15.567,0,0,1,3.041-2.63l-.843-.594a16.6,16.6,0,0,0-2.725,2.361,2.794,2.794,0,0,0,.516.876Z" fill="#1a1718"/>
      </g>
      <g id="Group_83" data-name="Group 83">
        <path id="Path_757" data-name="Path 757" d="M907.233,410.557c.214-.363.419-.719.614-1.08a.33.33,0,0,0,.012-.2c-.29.1-.581.207-.872.324-.735.294-1.435.621-2.106.966.293.212.584.43.876.654C906.236,410.988,906.726,410.764,907.233,410.557Z" fill="#1a1718"/>
      </g>
      <g id="Group_84" data-name="Group 84">
        <path id="Path_758" data-name="Path 758" d="M914.074,419.472q.759-.42,1.454-.88c-.254.022-.5.037-.722.037h-.124a16.65,16.65,0,0,0-5.459,1.291,4.206,4.206,0,0,0,.659.134C911.894,419.19,913.4,418.7,914.074,419.472Z" fill="#fff"/>
      </g>
      <g id="Group_85" data-name="Group 85">
        <path id="Path_759" data-name="Path 759" d="M932.059,418.332a10.206,10.206,0,0,1,3.046-1.849c.284-.126.531-.244.76-.359a13.079,13.079,0,0,1-1.511-.132c-3.524.724-4.156-.17-4.368-.475a1.293,1.293,0,0,1-.18-.4c-.554-.138-1.106-.289-1.652-.456a21.767,21.767,0,0,0-4.3,1.275,34.848,34.848,0,0,0,6.871,2.153C931.171,418.176,931.615,418.254,932.059,418.332Z"/>
      </g>
      <g id="Group_86" data-name="Group 86">
        <path id="Path_760" data-name="Path 760" d="M931.854,420.668a1.377,1.377,0,0,1-.321-.41l-5.463,2.862A18.374,18.374,0,0,0,931.854,420.668Z" fill="#fff"/>
      </g>
      <g id="Group_87" data-name="Group 87">
        <path id="Path_761" data-name="Path 761" d="M936.919,415.537a13.421,13.421,0,0,0-2.018.337c-.192.045-.37.081-.547.118a13.079,13.079,0,0,0,1.511.132A11.221,11.221,0,0,0,936.919,415.537Z" fill="#fff"/>
      </g>
      <g id="Group_88" data-name="Group 88">
        <path id="Path_762" data-name="Path 762" d="M929.785,414.484h-.031a9.545,9.545,0,0,0-1.6.177c.546.167,1.1.318,1.652.456A1.35,1.35,0,0,1,929.785,414.484Z" fill="#fff"/>
      </g>
      <g id="Group_89" data-name="Group 89">
        <path id="Path_763" data-name="Path 763" d="M906.155,425.308a4.04,4.04,0,0,1,.386-.325,3.656,3.656,0,0,1-2.106-.762c-.114,0-.23.01-.343.01-.339,0-.662-.025-.986-.046a25.081,25.081,0,0,1-3.512,1.41,17.793,17.793,0,0,0-4.121,1.807h0c.14-.01.349-.025.591-.025.767,0,1.868.151,2.181,1.089.413,1.232-1.083,2.2-1.575,2.516h0a17.758,17.758,0,0,0,4.379-1.034,23.409,23.409,0,0,1,4.212-1.064A3.37,3.37,0,0,1,906.155,425.308Z" fill="#fff"/>
      </g>
      <g id="Group_90" data-name="Group 90">
        <path id="Path_764" data-name="Path 764" d="M910.332,424.184a1.816,1.816,0,0,0-1.5.037,2.561,2.561,0,0,1,1.718.724,3.083,3.083,0,0,1-.175,4.176q.279-.054.579-.121a15.465,15.465,0,0,0,1.634-4.53A10.545,10.545,0,0,1,910.332,424.184Z" fill="#fff"/>
      </g>
      <g id="Group_91" data-name="Group 91">
        <path id="Path_765" data-name="Path 765" d="M909.223,419.92a9.926,9.926,0,0,0-3.415,1.893c1.5-.6,2.876-1.244,4.074-1.759A4.206,4.206,0,0,1,909.223,419.92Z" fill="#fff"/>
      </g>
      <g id="Group_92" data-name="Group 92">
        <path id="Path_766" data-name="Path 766" d="M909.882,420.054a5.253,5.253,0,0,0,3.055-.681,1.773,1.773,0,0,1-.155.763q.666-.315,1.292-.664C913.4,418.7,911.894,419.19,909.882,420.054Z" fill="#fff"/>
      </g>
      <g id="Group_93" data-name="Group 93">
        <path id="Path_767" data-name="Path 767" d="M908.126,421.3a4.092,4.092,0,0,1-.728.615l-.075.042a22.007,22.007,0,0,0,2.9-.774c-.136-.068-.27-.137-.408-.2A1.354,1.354,0,0,0,908.126,421.3Z" fill="#fff"/>
      </g>
      <g id="Group_94" data-name="Group 94">
        <path id="Path_768" data-name="Path 768" d="M905.806,421.815c-.012.017-.033.036-.042.052a1.449,1.449,0,0,1-.133.335c.182-.018.363-.035.549-.06A1.594,1.594,0,0,1,905.806,421.815Z" fill="#fff"/>
      </g>
      <g id="Group_95" data-name="Group 95">
        <path id="Path_769" data-name="Path 769" d="M906.18,422.142c.373-.049.754-.113,1.143-.189l.075-.042a4.092,4.092,0,0,0,.728-.615,1.354,1.354,0,0,1,1.688-.318c.138.064.272.133.408.2q.606-.207,1.226-.455c.457-.183.9-.382,1.334-.588a1.773,1.773,0,0,0,.155-.763,5.253,5.253,0,0,1-3.055.681c-1.2.515-2.578,1.161-4.074,1.759l0,0A1.594,1.594,0,0,0,906.18,422.142Z" fill="#fff"/>
      </g>
      <g id="Group_96" data-name="Group 96">
        <path id="Path_770" data-name="Path 770" d="M914.432,420.388a5.146,5.146,0,0,1,.018,1.1q.678-.353,1.314-.737c.005-.379,0-.759-.021-1.141Q915.113,420.012,914.432,420.388Z" fill="#fff"/>
      </g>
      <g id="Group_97" data-name="Group 97">
        <path id="Path_771" data-name="Path 771" d="M915.743,419.61c.017.382.026.762.021,1.141a18.982,18.982,0,0,0,3.905-3.078c-.693.226-1.386.418-2.051.571A19.434,19.434,0,0,1,915.743,419.61Z" fill="#fff"/>
      </g>
      <g id="Group_98" data-name="Group 98">
        <path id="Path_772" data-name="Path 772" d="M914.432,420.388a24.287,24.287,0,0,1-2.621,1.241c-.059.024-.117.043-.176.066-.01,0-.021.014-.03.017s-.012,0-.017,0a21.627,21.627,0,0,1-6.915,1.518,8.345,8.345,0,0,1-.846.564.229.229,0,0,1,.071.028c.185.149.362.278.537.4a22.369,22.369,0,0,0,7.739-1.687c.788-.315,1.547-.667,2.276-1.046A5.146,5.146,0,0,0,914.432,420.388Z" fill="#fff"/>
      </g>
      <g id="Group_99" data-name="Group 99">
        <path id="Path_773" data-name="Path 773" d="M904.435,424.221c-.175-.121-.352-.25-.537-.4a.229.229,0,0,0-.071-.028c-.232.136-.475.266-.721.391.324.021.647.046.986.046C904.205,424.231,904.321,424.223,904.435,424.221Z" fill="#fff"/>
      </g>
      <g id="Group_100" data-name="Group 100">
        <path id="Path_774" data-name="Path 774" d="M911.6,421.712c.009,0,.02-.013.03-.017l-.047.017C911.593,421.711,911.6,421.714,911.6,421.712Z" fill="#fff"/>
      </g>
      <g id="Group_101" data-name="Group 101">
        <path id="Path_775" data-name="Path 775" d="M914.074,419.472a1.735,1.735,0,0,1,.358.916q.683-.375,1.311-.778c0-.04,0-.079,0-.119-.016-.308-.054-.608-.092-.909-.041.005-.079.006-.12.01Q914.835,419.052,914.074,419.472Z" fill="#fff"/>
      </g>
      <g id="Group_102" data-name="Group 102">
        <path id="Path_776" data-name="Path 776" d="M915.743,419.61a19.434,19.434,0,0,0,1.875-1.366,15.94,15.94,0,0,1-1.97.338c.038.3.076.6.092.909C915.742,419.531,915.741,419.57,915.743,419.61Z" fill="#fff"/>
      </g>
      <g id="Group_103" data-name="Group 103">
        <path id="Path_777" data-name="Path 777" d="M912.782,420.136a3.135,3.135,0,0,1-1.147,1.559c.059-.023.117-.042.176-.066a24.287,24.287,0,0,0,2.621-1.241,1.735,1.735,0,0,0-.358-.916Q913.447,419.82,912.782,420.136Z" fill="#fff"/>
      </g>
      <g id="Group_104" data-name="Group 104">
        <path id="Path_778" data-name="Path 778" d="M911.157,421.637c-.315-.145-.625-.3-.935-.458a22.007,22.007,0,0,1-2.9.774c-.511.3-.829.373-1.143.189-.186.025-.367.042-.549.06a3.4,3.4,0,0,1-.958,1.028,21.627,21.627,0,0,0,6.915-1.518A.708.708,0,0,1,911.157,421.637Z" fill="#fff"/>
      </g>
      <g id="Group_105" data-name="Group 105">
        <path id="Path_779" data-name="Path 779" d="M907.323,421.953c-.389.076-.77.14-1.143.189C906.494,422.326,906.812,422.254,907.323,421.953Z" fill="#fff"/>
      </g>
      <g id="Group_106" data-name="Group 106">
        <path id="Path_780" data-name="Path 780" d="M912.782,420.136c-.435.206-.877.4-1.334.588q-.621.249-1.226.455c.31.155.62.313.935.458a.708.708,0,0,0,.431.075l.047-.017A3.135,3.135,0,0,0,912.782,420.136Z" fill="#fff"/>
      </g>
      <g id="Group_107" data-name="Group 107">
        <path id="Path_781" data-name="Path 781" d="M908.836,424.221a3.5,3.5,0,0,0-2.295.762,4.129,4.129,0,0,0,2.048-.646A2.574,2.574,0,0,1,908.836,424.221Z" fill="#fff"/>
      </g>
      <g id="Group_108" data-name="Group 108">
        <path id="Path_782" data-name="Path 782" d="M914.753,417.654h0a7.151,7.151,0,0,0,.735-.034c-.063-.326-.14-.647-.225-.966-.154.011-.314.025-.451.025h-.105a21.647,21.647,0,0,0-7.586,2.01,6.027,6.027,0,0,0,.877.683A19.3,19.3,0,0,1,914.753,417.654Z" fill="#1a1718"/>
      </g>
      <g id="Group_109" data-name="Group 109">
        <path id="Path_783" data-name="Path 783" d="M938.052,415.912a10.908,10.908,0,0,1-2.554,1.462h0a13.026,13.026,0,0,0-2.175,1.18l.527.092c.128.023.254.064.512.13L932.4,419.8a.567.567,0,0,0,.361.276c1.861.648-3.009,3.366-7.587,4.235h0a22.193,22.193,0,0,0-2.808.745l-8.4,4.4c.045-.123.086-.247.131-.371a24.169,24.169,0,0,1-2.958.857q-.384.582-.808,1.151a21.68,21.68,0,0,0,8.2-3.148,19.107,19.107,0,0,1,6.823-2.676,23.7,23.7,0,0,0,5.657-1.869c3.027-1.464,3.1-2.439,3.126-2.806a1.325,1.325,0,0,0-.459-1.1,10.806,10.806,0,0,1,2.215-1.236c2.31-1.02,3.51-1.957,3.693-2.9-.2.083-.4.175-.6.256A6.61,6.61,0,0,1,938.052,415.912Z" fill="#1a1718"/>
      </g>
      <g id="Group_110" data-name="Group 110">
        <path id="Path_784" data-name="Path 784" d="M921.737,414.754c-.029.061-.05.122-.081.184.328.159.659.312.99.463a23.105,23.105,0,0,1,3.745-1.345c-.48-.183-.958-.376-1.429-.589a23.24,23.24,0,0,0-3.139,1.247Z" fill="#1a1718"/>
      </g>
      <g id="Group_111" data-name="Group 111">
        <path id="Path_785" data-name="Path 785" d="M932.4,419.8l1.965-1.029c-.258-.066-.384-.107-.512-.13l-.527-.092C932.6,419.059,932.265,419.505,932.4,419.8Z" fill="#1a1718"/>
      </g>
      <g id="Group_112" data-name="Group 112">
        <path id="Path_786" data-name="Path 786" d="M914.095,429.09c-.045.124-.086.248-.131.371l8.4-4.4a16.543,16.543,0,0,0-4.427,2.116A15.08,15.08,0,0,1,914.095,429.09Z" fill="#1a1718"/>
      </g>
      <g id="Group_113" data-name="Group 113">
        <path id="Path_787" data-name="Path 787" d="M922.254,415.589h0c.129-.064.26-.126.392-.188-.331-.151-.662-.3-.99-.463a9.931,9.931,0,0,1-.737,1.239C921.38,415.991,921.832,415.8,922.254,415.589Z" fill="#1a1718"/>
      </g>
      <g id="Group_114" data-name="Group 114">
        <path id="Path_788" data-name="Path 788" d="M899.769,423.477c-.247.087-.493.174-.761.258l-.164.053a7.2,7.2,0,0,0,1.311.589c.393-.139.773-.285,1.135-.435A9.231,9.231,0,0,1,899.769,423.477Z" fill="#1a1718"/>
      </g>
      <g id="Group_115" data-name="Group 115">
        <path id="Path_789" data-name="Path 789" d="M910.143,430.135c-.062.075-.117.153-.183.226a3.222,3.222,0,0,1-1.294.859,9.442,9.442,0,0,0,1.663-.122q.423-.568.808-1.151C910.793,430.022,910.458,430.087,910.143,430.135Z" fill="#1a1718"/>
      </g>
      <g id="Group_116" data-name="Group 116">
        <path id="Path_790" data-name="Path 790" d="M897.81,432.816c.256-.04.514-.088.768-.141A1.415,1.415,0,0,0,897.81,432.816Z" fill="#1a1718"/>
      </g>
      <g id="Group_117" data-name="Group 117">
        <path id="Path_791" data-name="Path 791" d="M896.584,424.634q.143-.053.288-.123Z" fill="#1a1718"/>
      </g>
      <g id="Group_118" data-name="Group 118">
        <path id="Path_792" data-name="Path 792" d="M910.143,430.135a8.679,8.679,0,0,1-1.414.117,2.822,2.822,0,0,1-2.827-.456,19.343,19.343,0,0,0-4.527,1.072c-5.008,1.771-8.366,1.318-5.232-.705,1.8-1.164,1.543-1.942-.6-1.788-3.721.268-1.31-2.113,3.756-3.71.291-.092.575-.188.854-.288a7.2,7.2,0,0,1-1.311-.589c-.482.156-1.194.4-1.972.723q-.145.071-.288.123c-1.927.829-4.066,2.082-3.8,3.5.266,1.4,2.18,1.265,2.82,1.218-.539.349-2.147,1.393-1.521,2.669.338.688,1.2.93,2.232.93a9.961,9.961,0,0,0,1.491-.131,1.415,1.415,0,0,1,.768-.141,25.139,25.139,0,0,0,3.122-.888c2.918-1.032,4.954-1.152,5.384-.989a2.844,2.844,0,0,0,1.582.422,3.222,3.222,0,0,0,1.294-.859C910.026,430.288,910.081,430.21,910.143,430.135Zm-13.5-.741h0Z" fill="#1a1718"/>
      </g>
      <g id="Group_119" data-name="Group 119">
        <path id="Path_793" data-name="Path 793" d="M904.837,421.575a1.253,1.253,0,0,1,.332-.5c-.052-.056-.1-.12-.151-.174a2.7,2.7,0,0,0-.59-.45,2.169,2.169,0,0,0-.522.84,4.326,4.326,0,0,1-1.255.918,12.617,12.617,0,0,0,1.638.074A1.583,1.583,0,0,0,904.837,421.575Z" fill="#1a1718"/>
      </g>
      <g id="Group_120" data-name="Group 120">
        <path id="Path_794" data-name="Path 794" d="M917.194,417.341a13.723,13.723,0,0,0,1.42-1.382,16.052,16.052,0,0,1-3.351.695c.085.319.162.64.225.966A14.064,14.064,0,0,0,917.194,417.341Z" fill="#1a1718"/>
      </g>
      <g id="Group_121" data-name="Group 121">
        <path id="Path_795" data-name="Path 795" d="M908,419.372a6.027,6.027,0,0,1-.877-.683,9.05,9.05,0,0,0-2.693,1.759,2.7,2.7,0,0,1,.59.45c.054.054.1.118.151.174A9.61,9.61,0,0,1,908,419.372Z" fill="#1a1718"/>
      </g>
      <g id="Group_122" data-name="Group 122">
        <path id="Path_796" data-name="Path 796" d="M921.737,414.754c-.076.036-.158.071-.236.108l.155.076C921.687,414.876,921.708,414.815,921.737,414.754Z" fill="#1a1718"/>
      </g>
      <g id="Group_123" data-name="Group 123">
        <path id="Path_797" data-name="Path 797" d="M901.184,422.926c-.379.164-.791.329-1.245.493a17.526,17.526,0,0,0,1.962-.34C901.653,423.036,901.415,422.984,901.184,422.926Z" fill="#1a1718"/>
      </g>
      <g id="Group_124" data-name="Group 124">
        <path id="Path_798" data-name="Path 798" d="M919.135,416.819c.6-.19,1.2-.407,1.784-.642a9.931,9.931,0,0,0,.737-1.239l-.155-.076c-.395.184-.807.361-1.233.526A11.2,11.2,0,0,1,919.135,416.819Z" fill="#1a1718"/>
      </g>
      <g id="Group_125" data-name="Group 125">
        <path id="Path_799" data-name="Path 799" d="M902.868,423.2c-.333-.029-.657-.068-.967-.122a17.526,17.526,0,0,1-1.962.34c-.054.019-.115.038-.17.058a9.231,9.231,0,0,0,1.521.465C901.869,423.7,902.4,423.451,902.868,423.2Z" fill="#1a1718"/>
      </g>
      <g id="Group_126" data-name="Group 126">
        <path id="Path_800" data-name="Path 800" d="M904.086,422.442c.071-.055.141-.109.2-.162a12.617,12.617,0,0,1-1.638-.074,15.816,15.816,0,0,1-1.467.72c.231.058.469.11.717.153C902.645,422.9,903.373,422.683,904.086,422.442Z" fill="#1a1718"/>
      </g>
      <g id="Group_127" data-name="Group 127">
        <path id="Path_801" data-name="Path 801" d="M917.194,417.341c.623-.136,1.279-.313,1.941-.522a11.2,11.2,0,0,0,1.133-1.431c-.544.212-1.1.4-1.654.571A13.723,13.723,0,0,1,917.194,417.341Z" fill="#1a1718"/>
      </g>
      <g id="Group_128" data-name="Group 128">
        <path id="Path_802" data-name="Path 802" d="M901.9,423.079c.31.054.634.093.967.122a9.4,9.4,0,0,0,1.218-.759C903.373,422.683,902.645,422.9,901.9,423.079Z" fill="#1a1718"/>
      </g>
      <g id="Group_129" data-name="Group 129">
        <path id="Path_803" data-name="Path 803" d="M907.656,430.007a2.83,2.83,0,0,0-1.754-.211,2.822,2.822,0,0,0,2.827.456,1.863,1.863,0,0,1-1.073-.245Z" fill="#1a1718"/>
      </g>
      <g id="Group_130" data-name="Group 130">
        <path id="Path_804" data-name="Path 804" d="M914.806,418.629c.223,0,.468-.015.722-.037.037-.025.077-.048.114-.073-.039-.3-.1-.6-.154-.9a7.151,7.151,0,0,1-.735.034h0A19.3,19.3,0,0,0,908,419.372a4.614,4.614,0,0,0,1.225.548,16.65,16.65,0,0,1,5.459-1.291Z" fill="#1a1718"/>
      </g>
      <g id="Group_131" data-name="Group 131">
        <path id="Path_805" data-name="Path 805" d="M934.354,415.992l-.047-.006c-1.516-.223-3.021-.5-4.5-.869a1.293,1.293,0,0,0,.18.4C930.2,415.822,930.83,416.716,934.354,415.992Z" fill="#1a1718"/>
      </g>
      <g id="Group_132" data-name="Group 132">
        <path id="Path_806" data-name="Path 806" d="M923.858,415.936a21.767,21.767,0,0,1,4.3-1.275q-.891-.273-1.763-.605a23.105,23.105,0,0,0-3.745,1.345Q923.249,415.677,923.858,415.936Z" fill="#1a1718"/>
      </g>
      <g id="Group_133" data-name="Group 133">
        <path id="Path_807" data-name="Path 807" d="M935.865,416.124c-.229.115-.476.233-.76.359a10.206,10.206,0,0,0-3.046,1.849c.421.074.842.149,1.264.222a13.026,13.026,0,0,1,2.175-1.18h0a10.908,10.908,0,0,0,2.554-1.462A8.325,8.325,0,0,1,935.865,416.124Z" fill="#1a1718"/>
      </g>
      <g id="Group_134" data-name="Group 134">
        <path id="Path_808" data-name="Path 808" d="M931.854,420.668a18.374,18.374,0,0,1-5.784,2.452l-3.707,1.941a22.193,22.193,0,0,1,2.808-.745h0c4.578-.869,9.448-3.587,7.587-4.235a.567.567,0,0,1-.361-.276l-.864.453A1.377,1.377,0,0,0,931.854,420.668Z" fill="#1a1718"/>
      </g>
      <g id="Group_135" data-name="Group 135">
        <path id="Path_809" data-name="Path 809" d="M931.392,419.722a1.3,1.3,0,0,0,.141.536l.864-.453c-.132-.3.207-.746.926-1.251-.422-.073-.843-.148-1.264-.222A1.711,1.711,0,0,0,931.392,419.722Z" fill="#1a1718"/>
      </g>
      <g id="Group_136" data-name="Group 136">
        <path id="Path_810" data-name="Path 810" d="M922.254,415.589c-.422.207-.874.4-1.335.588a11.441,11.441,0,0,1-.775,1c-.147.169-.316.331-.475.5a23.179,23.179,0,0,0,3.016-1.209c.386-.191.779-.366,1.173-.528q-.609-.258-1.212-.535c-.132.062-.263.124-.392.188Z" fill="#1a1718"/>
      </g>
      <g id="Group_137" data-name="Group 137">
        <path id="Path_811" data-name="Path 811" d="M902.716,424.166a11.877,11.877,0,0,1-1.426-.224c-.362.15-.742.3-1.135.435l.02.007A3.792,3.792,0,0,0,902.716,424.166Z" fill="#1a1718"/>
      </g>
      <g id="Group_138" data-name="Group 138">
        <path id="Path_812" data-name="Path 812" d="M905.262,428.885a23.409,23.409,0,0,0-4.212,1.064,17.758,17.758,0,0,1-4.379,1.034h0c.492-.317,1.988-1.284,1.575-2.516-.313-.938-1.414-1.089-2.181-1.089-.242,0-.451.015-.591.025h0a17.793,17.793,0,0,1,4.121-1.807,25.081,25.081,0,0,0,3.512-1.41c-.128-.009-.264-.007-.39-.019a3.792,3.792,0,0,1-2.541.218l-.02-.007c-.279.1-.563.2-.854.288-5.066,1.6-7.477,3.978-3.756,3.71,2.141-.154,2.4.624.6,1.788-3.134,2.023.224,2.476,5.232.705A19.343,19.343,0,0,1,905.9,429.8c-.035-.032-.077-.054-.111-.088A2.453,2.453,0,0,1,905.262,428.885Z" fill="#1a1718"/>
      </g>
      <g id="Group_139" data-name="Group 139">
        <path id="Path_813" data-name="Path 813" d="M905.8,421.814c-.064-.071-.129-.149-.2-.238-.136-.175-.286-.34-.437-.5a1.253,1.253,0,0,0-.332.5,1.583,1.583,0,0,1-.548.7c.1,0,.188,0,.287,0C904.993,422.131,905.4,421.974,905.8,421.814Z" fill="#1a1718"/>
      </g>
      <g id="Group_140" data-name="Group 140">
        <path id="Path_814" data-name="Path 814" d="M917.194,417.341a14.064,14.064,0,0,1-1.706.279c.059.3.115.6.154.9A17.675,17.675,0,0,0,917.194,417.341Z" fill="#1a1718"/>
      </g>
      <g id="Group_141" data-name="Group 141">
        <path id="Path_815" data-name="Path 815" d="M905.8,421.814h0a9.926,9.926,0,0,1,3.415-1.893,4.614,4.614,0,0,1-1.225-.548,9.61,9.61,0,0,0-2.829,1.7c.151.164.3.329.437.5C905.676,421.665,905.741,421.743,905.8,421.814Z" fill="#1a1718"/>
      </g>
      <g id="Group_142" data-name="Group 142">
        <path id="Path_816" data-name="Path 816" d="M905.806,421.815h0c-.4.16-.812.317-1.229.466.34-.011.7-.041,1.055-.078a1.449,1.449,0,0,0,.133-.335C905.773,421.851,905.794,421.832,905.806,421.815Z" fill="#1a1718"/>
      </g>
      <g id="Group_143" data-name="Group 143">
        <path id="Path_817" data-name="Path 817" d="M905.808,421.813h0Z" fill="#1a1718"/>
      </g>
      <g id="Group_144" data-name="Group 144">
        <path id="Path_818" data-name="Path 818" d="M917.618,418.244c.665-.153,1.358-.345,2.051-.571.159-.165.328-.327.475-.5a11.441,11.441,0,0,0,.775-1c-.583.235-1.182.452-1.784.642A15.239,15.239,0,0,1,917.618,418.244Z" fill="#1a1718"/>
      </g>
      <g id="Group_145" data-name="Group 145">
        <path id="Path_819" data-name="Path 819" d="M903.827,423.794a8.345,8.345,0,0,0,.846-.564,14.511,14.511,0,0,1-1.8-.029c-.468.25-1,.5-1.578.741a11.877,11.877,0,0,0,1.426.224,7.183,7.183,0,0,0,.684-.322A.657.657,0,0,1,903.827,423.794Z" fill="#1a1718"/>
      </g>
      <g id="Group_146" data-name="Group 146">
        <path id="Path_820" data-name="Path 820" d="M903.4,423.844a7.183,7.183,0,0,1-.684.322c.126.012.262.01.39.019.246-.125.489-.255.721-.391A.657.657,0,0,0,903.4,423.844Z" fill="#1a1718"/>
      </g>
      <g id="Group_147" data-name="Group 147">
        <path id="Path_821" data-name="Path 821" d="M915.648,418.582c0-.021,0-.042-.006-.063-.037.025-.077.048-.114.073C915.569,418.588,915.607,418.587,915.648,418.582Z" fill="#1a1718"/>
      </g>
      <g id="Group_148" data-name="Group 148">
        <path id="Path_822" data-name="Path 822" d="M904.289,422.28c-.062.053-.132.107-.2.162.162-.055.329-.1.49-.162C904.477,422.283,904.386,422.279,904.289,422.28Z" fill="#1a1718"/>
      </g>
      <g id="Group_149" data-name="Group 149">
        <path id="Path_823" data-name="Path 823" d="M915.642,418.519c0,.021,0,.042.006.063a15.94,15.94,0,0,0,1.97-.338,15.239,15.239,0,0,0,1.517-1.425c-.662.209-1.318.386-1.941.522A17.675,17.675,0,0,1,915.642,418.519Z" fill="#1a1718"/>
      </g>
      <g id="Group_150" data-name="Group 150">
        <path id="Path_824" data-name="Path 824" d="M904.673,423.23a3.4,3.4,0,0,0,.958-1.028c-.36.037-.715.067-1.055.078-.161.058-.328.107-.49.162a9.4,9.4,0,0,1-1.218.759A14.511,14.511,0,0,0,904.673,423.23Z" fill="#1a1718"/>
      </g>
    </g>
    <g id="Group_152" data-name="Group 152">
      <circle id="Ellipse_24" data-name="Ellipse 24" cx="2.833" cy="2.833" r="2.833" transform="translate(889.109 420.787)" fill="#fff"/>
    </g>
    <g id="Group_153" data-name="Group 153">
      <circle id="Ellipse_25" data-name="Ellipse 25" cx="2.833" cy="2.833" r="2.833" transform="translate(882.57 421.17)" fill="#fff"/>
    </g>
    <g id="Group_156" data-name="Group 156">
      <g id="Group_154" data-name="Group 154">
        <ellipse id="Ellipse_26" data-name="Ellipse 26" cx="16.47" cy="15.12" rx="16.47" ry="15.12" transform="translate(875.136 419.185) rotate(-42.217)" fill="#fff"/>
      </g>
      <g id="Group_155" data-name="Group 155">
        <path id="Path_825" data-name="Path 825" d="M909.763,408.184c9.778,11.21,1.062,27.292-13.368,27.178-12.267.041-19.3-11.981-13.738-22.836,5.19-10.335,19.18-13.1,27.106-4.342Zm-.144.131c-9.039-9.49-25.588-1.4-26.976,10.677A13.58,13.58,0,0,0,902.224,433.3c8.934-4.009,14.545-16.975,7.4-24.983Z" fill="#1a1718"/>
      </g>
    </g>
    <g id="Group_159" data-name="Group 159">
      <g id="Group_157" data-name="Group 157">
        <ellipse id="Ellipse_27" data-name="Ellipse 27" cx="12.782" cy="13.465" rx="12.782" ry="13.465" transform="translate(884.616 406.406)" fill="#fff"/>
      </g>
      <g id="Group_158" data-name="Group 158">
        <path id="Path_826" data-name="Path 826" d="M910.278,419.871c.111,9.779-8.569,17.612-18.1,12.883-10.284-5.423-11.166-20.989-.2-26.2,9.678-4.25,18.439,3.432,18.3,13.322Zm-.2,0c-.074-10.731-13.6-16.7-21.159-8.766-6.014,6.126-4.831,17.437,3.691,20.667,7.859,3.077,17.616-3.318,17.468-11.9Z" fill="#1a1718"/>
      </g>
    </g>
    <g id="Group_160" data-name="Group 160">
      <path id="Path_827" data-name="Path 827" d="M901.992,428.912h0a3.15,3.15,0,0,0-3.8,1.524h0c-1.327,2.423-4.8,2.222-5.406-.313h0a2.666,2.666,0,0,0-3.3-1.936h0a2.748,2.748,0,0,1-2.752-4.469h0a2.875,2.875,0,0,0-.314-3.939h0c-1.957-1.632-.689-5.008,1.975-5.259h0a3.279,3.279,0,0,0,2.911-2.976h0c.194-2.669,3.541-4.01,5.215-2.089h0a2.875,2.875,0,0,0,3.945.228h0a2.748,2.748,0,0,1,4.528,2.654h0a2.666,2.666,0,0,0,2.008,3.261h0c2.547.553,2.824,4.018.431,5.4h0a3.15,3.15,0,0,0-1.441,3.837h0A3.18,3.18,0,0,1,901.992,428.912Z" fill="#fff"/>
      <path id="Path_828" data-name="Path 828" d="M895.4,433.12a4.031,4.031,0,0,1-.535-.036,3.544,3.544,0,0,1-3.035-2.733,1.627,1.627,0,0,0-.759-1.039,1.848,1.848,0,0,0-1.368-.178,3.618,3.618,0,0,1-3.973-1.49,3.9,3.9,0,0,1,.209-4.505,1.916,1.916,0,0,0-.155-2.611,3.689,3.689,0,0,1-1.114-4,4.216,4.216,0,0,1,3.622-2.977,2.3,2.3,0,0,0,2.031-2.075,4.217,4.217,0,0,1,2.9-3.688,3.69,3.69,0,0,1,4.024,1.028,1.919,1.919,0,0,0,2.614.1,3.9,3.9,0,0,1,4.5-.306,3.622,3.622,0,0,1,1.577,3.94,1.834,1.834,0,0,0,.207,1.362,1.628,1.628,0,0,0,1.055.738,3.542,3.542,0,0,1,2.8,2.974,4.138,4.138,0,0,1-2.089,4.222,2.179,2.179,0,0,0-1.025,2.623,4.152,4.152,0,0,1-5.243,5.357,2.181,2.181,0,0,0-2.6,1.083A4.161,4.161,0,0,1,895.4,433.12Zm-5.219-5.994a3.691,3.691,0,0,1,1.875.5,3.561,3.561,0,0,1,1.671,2.265,1.6,1.6,0,0,0,1.4,1.256,2.2,2.2,0,0,0,2.207-1.183,4.1,4.1,0,0,1,5.01-1.967h0a2.207,2.207,0,0,0,2.738-2.8,4.106,4.106,0,0,1,1.856-5.053,2.2,2.2,0,0,0,1.135-2.232,1.6,1.6,0,0,0-1.286-1.368,3.561,3.561,0,0,1-2.3-1.621,3.772,3.772,0,0,1-.453-2.8,1.7,1.7,0,0,0-.713-1.877,1.942,1.942,0,0,0-2.266.2,3.863,3.863,0,0,1-5.276-.36,1.75,1.75,0,0,0-1.937-.459,2.28,2.28,0,0,0-1.57,1.979,4.237,4.237,0,0,1-3.793,3.875,2.282,2.282,0,0,0-1.943,1.613,1.748,1.748,0,0,0,.5,1.927,3.864,3.864,0,0,1,.474,5.267,1.94,1.94,0,0,0-.153,2.27,1.7,1.7,0,0,0,1.891.672A4,4,0,0,1,890.183,427.126Z" fill="#1a1718"/>
    </g>
    <g id="Group_161" data-name="Group 161">
      <path id="Path_829" data-name="Path 829" d="M907.323,406.235s-6.36-2.814-6.984-2.394c0,0,4.067,5.58,4.075,5.646a11.454,11.454,0,0,0,3.364,6.019,8.041,8.041,0,0,0,7.186,2.463,2.177,2.177,0,0,1,2.192,1.145c2.11,3.7,5.047,5.376,9.094,4.707,3.189-.527,10.594-2.964,11.087-6.61a23.433,23.433,0,0,1-7.889-.859c-1.953-.384-1.8-.66-3.744-1.087-3.856-.848-4.772-2.393-8.316-4.236-.992-.516-4.213-2-5.164-2.571Z" fill="#fff"/>
      <path id="Path_830" data-name="Path 830" d="M924.576,424.94c-3.467,0-6.243-1.792-8.267-5.343a1.209,1.209,0,0,0-1.193-.665,9.009,9.009,0,0,1-8.02-2.729,12.724,12.724,0,0,1-3.619-6.363c-.5-.72-2.6-3.6-3.925-5.425l-.6-.817.838-.565c.425-.289,1.069-.723,7.924,2.311l.008,0,5,2.275c.562.339,2.085,1.071,3.308,1.659.756.364,1.433.689,1.8.882a31.665,31.665,0,0,1,3.107,1.877,12.834,12.834,0,0,0,4.969,2.271,12.052,12.052,0,0,1,1.959.584,9.1,9.1,0,0,0,1.764.5c.055.011.172.039.339.082a20.558,20.558,0,0,0,7.249.764l1.246-.143-.168,1.242c-.628,4.651-9.542,7.053-11.895,7.442A11.14,11.14,0,0,1,924.576,424.94Zm-9.322-7.969a3.213,3.213,0,0,1,2.749,1.66c1.978,3.47,4.546,4.812,8.088,4.228,2.977-.491,8.09-2.33,9.755-4.587a25.141,25.141,0,0,1-6.355-.9l-.233-.059a10.9,10.9,0,0,1-2.078-.59,10.232,10.232,0,0,0-1.685-.5,14.625,14.625,0,0,1-5.629-2.552,29.454,29.454,0,0,0-2.928-1.771c-.359-.187-1.015-.5-1.747-.855-1.293-.621-2.753-1.322-3.419-1.716l-4.847-2.2c-1.4-.622-2.991-1.27-4.245-1.728,2.665,3.662,2.67,3.7,2.7,3.977a10.556,10.556,0,0,0,3.078,5.433,7.07,7.07,0,0,0,6.352,2.2A2.861,2.861,0,0,1,915.254,416.971Z" fill="#040505"/>
    </g>
    <g id="Group_164" data-name="Group 164">
      <g id="Group_162" data-name="Group 162">
        <ellipse id="Ellipse_28" data-name="Ellipse 28" cx="8.495" cy="7.096" rx="8.495" ry="7.096" transform="translate(886.564 422.159) rotate(-51.395)" fill="#fff"/>
      </g>
      <g id="Group_163" data-name="Group 163">
        <path id="Path_831" data-name="Path 831" d="M902.771,413.233c5.849,5.087,2.386,13.394-4.774,14.759-4.622,1.154-9.232-1.826-9.169-6.85-.135-7.142,7.963-12.565,13.943-7.909Zm-.122.152c-4.95-3.552-11.757,2.642-11.979,7.795-.183,7.517,8.015,8.451,11.65,2.688,2.032-2.956,3.606-7.8.329-10.483Z" fill="#1a1718"/>
      </g>
    </g>
  </g>
</svg>
